PathFileType  4	(X/Y/Z) C:\Users\antoi\Documents\MyRepositories\mobilecap\ResultsAnalysis
DataRate	CameraRate	NumFrames	NumMarkers	Units	OrigDataRate	OrigDataStartFrame	OrigNumFrames
100.0	100.0	6	55	mm	100.0	189	502
Frame#	Time	r_knee			r_shank_antsup			r_ankle			r_calc			r_5meta			r_toe			L_knee			L_shank_antsup			L_ankle			L_calc			L_5meta			L_toe			r_mknee			r_mankle			L_mknee			L_mankle			r_sh2			r_sh3			r_sh4			L_sh2			L_sh3			r_thigh1			r_thigh2			r_thigh3			r_thigh4			r_thigh5			L_thigh1			L_thigh2			L_thigh3			L_thigh4			r.ASIS			r.PSIS			L.ASIS			L.PSIS			C7			R_Shoulder			L_Shoulder			R_Sternum			L_Sternum			R_humerus			R_elbow_med			R_elbow_lat			R_forearm			R_wrist_radius			R_wrist_ulna			L_humerus			L_elbow_med			L_elbow_lat			L_forearm			L_wrist_radius			L_wrist_ulna			R_HJC			L_HJC			R_HJC_reg			L_HJC_reg			
		X1	Y1	Z1	X2	Y2	Z2	X3	Y3	Z3	X4	Y4	Z4	X5	Y5	Z5	X6	Y6	Z6	X7	Y7	Z7	X8	Y8	Z8	X9	Y9	Z9	X10	Y10	Z10	X11	Y11	Z11	X12	Y12	Z12	X13	Y13	Z13	X14	Y14	Z14	X15	Y15	Z15	X16	Y16	Z16	X17	Y17	Z17	X18	Y18	Z18	X19	Y19	Z19	X20	Y20	Z20	X21	Y21	Z21	X22	Y22	Z22	X23	Y23	Z23	X24	Y24	Z24	X25	Y25	Z25	X26	Y26	Z26	X27	Y27	Z27	X28	Y28	Z28	X29	Y29	Z29	X30	Y30	Z30	X31	Y31	Z31	X32	Y32	Z32	X33	Y33	Z33	X34	Y34	Z34	X35	Y35	Z35	X36	Y36	Z36	X37	Y37	Z37	X38	Y38	Z38	X39	Y39	Z39	X40	Y40	Z40	X41	Y41	Z41	X42	Y42	Z42	X43	Y43	Z43	X44	Y44	Z44	X45	Y45	Z45	X46	Y46	Z46	X47	Y47	Z47	X48	Y48	Z48	X49	Y49	Z49	X50	Y50	Z50	X51	Y51	Z51	X52	Y52	Z52	X53	Y53	Z53	X54	Y54	Z54	X55	Y55	Z55	

189	1.88000000	-270.68630	542.21167	-447.29346	-246.42719	466.19605	-433.59132	-289.24150	102.14852	-443.03544	-349.66069	52.16381	-483.50954	-144.82840	38.44891	-410.65349	-113.46285	62.45654	-472.46237	-265.91426	542.40143	-769.53449	-239.68427	425.34230	-779.44408	-297.47688	99.62132	-758.35900	-364.44996	53.20597	-717.72057	-144.73294	34.02460	-792.15294	-119.71912	60.05950	-727.26878	-270.37424	535.18999	-570.54809	-263.51229	115.41407	-533.83767	-269.97954	543.26670	-642.36296	-270.44386	115.03272	-666.33389	-244.58720	353.36080	-422.05157	-319.99774	466.78890	-411.11178	-324.82298	350.53459	-407.74952	-326.90989	437.82779	-797.92552	-328.95007	316.58041	-796.27609	-188.84268	860.64944	-429.53544	-183.01526	748.93772	-441.66760	-234.94242	719.38889	-411.89260	-301.98457	849.48431	-423.95645	-288.42722	732.65273	-422.74228	-179.12579	863.88008	-786.49893	-179.34609	725.18846	-783.03515	-298.00990	860.46220	-802.27743	-287.85476	720.88307	-795.65010	-161.77292	1049.14563	-477.87150	-347.53294	1108.08506	-565.69620	-152.75445	1046.56740	-741.79345	-344.07685	1109.39439	-669.45442	-358.01729	1605.97483	-623.19242	-294.31773	1567.93732	-444.97469	-295.59233	1582.75086	-781.98217	-204.37763	1552.52086	-589.16682	-201.85527	1549.81620	-642.75277	-301.78567	1293.66786	-363.63167	-334.64164	1204.22708	-438.74242	-321.16160	1207.27785	-357.69428	-250.33705	1064.85161	-338.99482	-202.85137	958.95955	-346.91235	-245.95752	955.24430	-334.27378	-277.77192	1321.14610	-867.91036	-325.18281	1232.34890	-811.98820	-295.14794	1234.17500	-872.76539	-231.75955	1074.53993	-883.65575	-192.51685	983.23726	-870.20912	-227.00277	974.24582	-887.63646	-254.77275	979.85193	-490.45787	-244.16706	978.34206	-720.57667	-241.74334	977.38901	-519.02651	-235.94129	979.58704	-693.21449	
190	1.89000000	-270.72516	542.19366	-447.29807	-246.48581	466.17496	-433.63030	-289.21867	102.17723	-443.04400	-349.64661	52.21921	-483.47318	-144.80679	38.46083	-410.66223	-113.45809	62.54075	-472.36632	-265.89736	542.48886	-769.50516	-239.67025	425.44518	-779.40216	-297.49938	99.73504	-758.30223	-364.45470	53.29931	-717.66688	-144.69334	34.07978	-792.08636	-119.69144	60.10429	-727.16037	-270.38360	535.17040	-570.47093	-263.48974	115.53295	-533.80807	-269.96247	543.20892	-642.33746	-270.45338	115.03078	-666.34109	-244.59259	353.34268	-421.97406	-319.98877	466.78418	-411.10065	-324.83683	350.56206	-407.75677	-326.91803	437.93602	-797.85898	-328.92595	316.65729	-796.23826	-188.86377	860.61310	-429.56054	-182.99935	748.87674	-441.71650	-234.95479	719.39764	-411.91828	-302.02095	849.42831	-423.97624	-288.46282	732.59621	-422.75367	-179.12093	863.88440	-786.49329	-179.34250	725.22089	-783.03030	-298.03343	860.59289	-802.25079	-287.86288	720.96704	-795.61530	-161.78988	1049.14238	-477.87578	-347.54812	1108.09515	-565.61975	-152.74079	1046.65382	-741.75461	-344.10829	1109.40319	-669.38904	-358.02933	1606.03520	-623.07933	-294.34732	1567.93003	-445.01344	-295.62384	1582.83422	-781.98526	-204.39201	1552.55053	-589.10766	-201.84621	1549.86019	-642.74084	-301.77094	1293.65394	-363.60926	-334.69805	1204.27274	-438.81272	-321.17413	1207.26513	-357.74189	-250.36389	1064.84160	-339.07117	-202.86958	958.94874	-346.93657	-246.00399	955.17909	-334.36355	-277.76855	1321.20697	-867.88327	-325.20534	1232.42270	-811.95892	-295.15768	1234.27175	-872.75908	-231.73357	1074.64531	-883.64009	-192.49111	983.31145	-870.18767	-226.98361	974.37189	-887.63238	-254.76045	979.83685	-490.44556	-244.16398	978.40370	-720.56528	-241.73502	977.45302	-519.00881	-235.96181	979.64833	-693.16944	
191	1.90000000	-270.77777	542.13012	-447.29768	-246.53214	466.11870	-433.65466	-289.23352	102.11482	-443.05850	-349.64945	52.20883	-483.42742	-144.78231	38.44754	-410.62612	-113.45525	62.53772	-472.33108	-265.86748	542.43549	-769.45006	-239.66060	425.46074	-779.39450	-297.49796	99.75876	-758.28507	-364.48041	53.27645	-717.62455	-144.68286	34.07455	-792.07221	-119.71180	59.98874	-727.03237	-270.41984	535.14598	-570.49390	-263.49140	115.53093	-533.81092	-269.99647	543.27849	-642.35471	-270.47261	114.99050	-666.32904	-244.58960	353.38693	-421.92722	-320.00897	466.79831	-411.09282	-324.85494	350.50730	-407.75401	-326.90958	437.93804	-797.87351	-328.90453	316.67907	-796.23421	-188.94221	860.52900	-429.62904	-182.95737	748.79561	-441.77063	-234.96361	719.35804	-411.97367	-302.03135	849.34665	-423.96034	-288.48902	732.55167	-422.75961	-179.11140	863.89144	-786.48641	-179.34083	725.21284	-783.04616	-298.04277	860.61102	-802.23925	-287.86241	720.97293	-795.61381	-161.81029	1049.12387	-477.86118	-347.55449	1108.13551	-565.62562	-152.74348	1046.66494	-741.73704	-344.11656	1109.40164	-669.35128	-358.05500	1606.01168	-623.04218	-294.35830	1567.90829	-445.01886	-295.67043	1582.85685	-782.02119	-204.41471	1552.52513	-589.09017	-201.83986	1549.82482	-642.74747	-301.75769	1293.61343	-363.61338	-334.83731	1204.36316	-438.89985	-321.18718	1207.23840	-357.76718	-250.40709	1064.82477	-339.14032	-202.90208	958.90879	-346.95113	-246.07013	955.06367	-334.52246	-277.78699	1321.18755	-867.88829	-325.22236	1232.45032	-811.94912	-295.16314	1234.23836	-872.72994	-231.73556	1074.66464	-883.64451	-192.48857	983.33260	-870.23926	-226.98082	974.37815	-887.62524	-254.78603	979.83843	-490.43500	-244.18069	978.41648	-720.55436	-241.77964	977.52525	-518.96581	-236.00719	979.65116	-693.12560	
192	1.91000000	-270.81411	542.04783	-447.27640	-246.53713	466.08351	-433.63537	-289.23327	102.05778	-443.03237	-349.65143	52.14726	-483.39051	-144.77418	38.42092	-410.60178	-113.45662	62.44086	-472.37180	-265.84967	542.30193	-769.41546	-239.66311	425.38550	-779.41440	-297.46849	99.68725	-758.31149	-364.48399	53.18678	-717.63878	-144.69854	34.00778	-792.09176	-119.72307	59.85957	-726.99645	-270.40673	535.06446	-570.60598	-263.51803	115.41469	-533.84054	-270.04176	543.39413	-642.38943	-270.49354	114.90835	-666.29988	-244.58604	353.54137	-421.92730	-320.03389	466.82910	-411.10846	-324.85675	350.42326	-407.72690	-326.87989	437.82287	-797.91546	-328.90025	316.60723	-796.25583	-188.93143	860.54568	-429.62113	-182.99428	748.76729	-441.75915	-234.96701	719.32254	-412.00325	-301.99374	849.36305	-423.91774	-288.51679	732.50323	-422.78182	-179.10374	863.89551	-786.48792	-179.33215	725.13052	-783.05190	-298.03401	860.50102	-802.24157	-287.86002	720.90562	-795.64207	-161.82066	1049.10310	-477.83375	-347.55280	1108.12598	-565.65205	-152.75934	1046.59425	-741.73749	-344.10503	1109.41163	-669.35843	-358.06490	1605.92367	-623.05612	-294.33950	1567.88190	-444.98080	-295.70853	1582.79246	-782.04570	-204.42478	1552.42325	-589.09905	-201.86080	1549.72145	-642.73847	-301.77808	1293.53374	-363.69488	-334.88512	1204.40019	-438.98839	-321.20775	1207.19266	-357.77394	-250.43453	1064.77126	-339.15949	-202.95148	958.84010	-346.98016	-246.12153	954.92746	-334.65538	-277.82822	1321.08864	-867.90257	-325.23196	1232.41869	-811.95397	-295.17440	1234.09877	-872.68969	-231.77249	1074.57965	-883.67145	-192.49060	983.26498	-870.33354	-226.99906	974.27090	-887.63613	-254.82073	979.83459	-490.42235	-244.20419	978.37615	-720.54097	-241.80206	977.45162	-518.96509	-236.01144	979.61091	-693.14244	
193	1.92000000	-270.84938	541.95358	-447.26223	-246.51959	466.07924	-433.62049	-289.22045	102.01749	-442.99971	-349.66529	52.06738	-483.42781	-144.79940	38.36283	-410.59333	-113.46499	62.26653	-472.46658	-265.85324	542.11731	-769.42379	-239.68053	425.24188	-779.46063	-297.42474	99.51530	-758.40038	-364.43395	53.06445	-717.73816	-144.70480	33.84441	-792.10610	-119.66465	59.83033	-727.11921	-270.37171	534.97227	-570.70787	-263.55451	115.21624	-533.89043	-270.05889	543.44966	-642.40604	-270.50562	114.82188	-666.26787	-244.54867	353.69309	-421.93310	-320.08693	466.83648	-411.11994	-324.85062	350.33234	-407.69109	-326.83205	437.63058	-797.94646	-328.90865	316.43908	-796.28630	-188.89732	860.59079	-429.58969	-183.05811	748.82452	-441.76682	-234.95692	719.36283	-411.96031	-301.94612	849.41949	-423.85695	-288.53217	732.42544	-422.78006	-179.09826	863.89885	-786.49165	-179.31443	724.94904	-783.05498	-298.00950	860.27363	-802.24817	-287.84515	720.76756	-795.69106	-161.82791	1049.07215	-477.80734	-347.54864	1108.03670	-565.67043	-152.79168	1046.45001	-741.77344	-344.10581	1109.42480	-669.44317	-358.05176	1605.78885	-623.13218	-294.32616	1567.85362	-444.92220	-295.73531	1582.64356	-782.02428	-204.42064	1552.25650	-589.15439	-201.89575	1549.57468	-642.75399	-301.81742	1293.45122	-363.77294	-334.74272	1204.31901	-439.11208	-321.23322	1207.14910	-357.79211	-250.45290	1064.70863	-339.15330	-202.99047	958.79664	-347.01832	-246.14116	954.86450	-334.69947	-277.86609	1320.92108	-867.92077	-325.22796	1232.32673	-811.98138	-295.18952	1233.91696	-872.69212	-231.81415	1074.42072	-883.72098	-192.50569	983.11809	-870.42087	-227.02630	974.06697	-887.65735	-254.86049	979.80573	-490.42419	-244.23867	978.28259	-720.54216	-241.77343	977.20084	-519.01189	-235.99350	979.53117	-693.22872	
194	1.93000000	-270.87355	541.89997	-447.27563	-246.53632	466.06402	-433.61867	-289.22731	101.96420	-443.00048	-349.69568	51.99010	-483.53132	-144.85736	38.27786	-410.56319	-113.48694	62.08277	-472.59532	-265.85999	541.87401	-769.45474	-239.70047	425.05452	-779.52615	-297.38474	99.26684	-758.54111	-364.36629	52.91317	-717.90211	-144.70840	33.60352	-792.15824	-119.60616	59.80347	-727.31833	-270.37795	534.97589	-570.69201	-263.58909	114.97769	-533.95435	-270.05893	543.44740	-642.40758	-270.50690	114.77913	-666.24266	-244.51300	353.71068	-421.90620	-320.15063	466.84314	-411.03567	-324.85404	350.24518	-407.67556	-326.79806	437.44138	-797.98804	-328.90376	316.24699	-796.35193	-189.02139	860.48250	-429.68091	-183.03945	748.85633	-441.83257	-234.94492	719.41746	-411.88194	-301.94921	849.36768	-423.81534	-288.50262	732.37791	-422.72938	-179.09504	863.90405	-786.49074	-179.31053	724.73306	-783.09632	-297.99065	859.99353	-802.28517	-287.81099	720.57366	-795.75251	-161.84409	1049.02487	-477.79243	-347.54802	1107.94951	-565.69490	-152.84523	1046.25426	-741.85928	-344.10999	1109.39181	-669.55662	-358.02128	1605.63064	-623.28805	-294.33411	1567.82834	-444.87663	-295.76094	1582.45002	-781.97871	-204.41541	1552.09418	-589.28303	-201.92572	1549.41230	-642.83099	-301.85459	1293.40967	-363.77765	-334.64265	1204.21843	-439.16648	-321.26139	1207.11905	-357.82051	-250.49600	1064.68214	-339.18502	-202.99760	958.79360	-347.05045	-246.15370	954.86276	-334.70966	-277.90052	1320.72325	-868.00056	-325.20732	1232.19351	-812.03368	-295.21921	1233.72183	-872.73570	-231.84670	1074.23995	-883.79812	-192.56106	982.97688	-870.53734	-227.04407	973.81686	-887.68095	-254.90767	979.76919	-490.43386	-244.29930	978.14315	-720.55175	-241.78217	976.97136	-519.04393	-236.01305	979.39158	-693.32658	
